<?xml version="1.0" encoding="UTF-8" standalone="no"?>
<!-- Created with Inkscape (http://www.inkscape.org/) -->

<svg
   xmlns:dc="http://purl.org/dc/elements/1.1/"
   xmlns:cc="http://creativecommons.org/ns#"
   xmlns:rdf="http://www.w3.org/1999/02/22-rdf-syntax-ns#"
   xmlns:svg="http://www.w3.org/2000/svg"
   xmlns="http://www.w3.org/2000/svg"
   xmlns:sodipodi="http://sodipodi.sourceforge.net/DTD/sodipodi-0.dtd"
   xmlns:inkscape="http://www.inkscape.org/namespaces/inkscape"
   width="44.096386mm"
   height="44.099361mm"
   viewBox="0 0 44.096386 44.099361"
   version="1.1"
   id="svg8"
   inkscape:version="0.92.4 (5da689c313, 2019-01-14)"
   sodipodi:docname="skull.svg">
  <defs
     id="defs2" />
  <sodipodi:namedview
     id="base"
     pagecolor="#ffffff"
     bordercolor="#666666"
     borderopacity="1.0"
     inkscape:pageopacity="0.0"
     inkscape:pageshadow="2"
     inkscape:zoom="0.7"
     inkscape:cx="-140.8056"
     inkscape:cy="77.621787"
     inkscape:document-units="mm"
     inkscape:current-layer="layer1"
     showgrid="false"
     inkscape:window-width="1600"
     inkscape:window-height="837"
     inkscape:window-x="1912"
     inkscape:window-y="491"
     inkscape:window-maximized="1"
     fit-margin-top="0"
     fit-margin-left="0"
     fit-margin-right="0"
     fit-margin-bottom="0" />
  <metadata
     id="metadata5">
    <rdf:RDF>
      <cc:Work
         rdf:about="">
        <dc:format>image/svg+xml</dc:format>
        <dc:type
           rdf:resource="http://purl.org/dc/dcmitype/StillImage" />
        <dc:title></dc:title>
      </cc:Work>
    </rdf:RDF>
  </metadata>
  <g
     inkscape:label="Layer 1"
     inkscape:groupmode="layer"
     id="layer1"
     transform="translate(-88.320854,-96.545558)">
    <g
       id="g876"
       transform="matrix(0.26458333,0,0,0.26458333,88.319417,96.545525)"
       style="fill:#ffffff;fill-opacity:1">
      <g
         id="g819"
         style="fill:#ffffff;fill-opacity:1">
	<g
   id="g817"
   style="fill:#ffffff;fill-opacity:1">
		<path
   id="path815"
   d="m 160.893,135.229 c -3.732,-2.362 -10.759,-2.265 -16.544,-1.656 l -13.938,-13.944 c 1.425,-1.182 2.516,-2.764 2.978,-4.901 0,0 2.99,-6.899 -4.469,-15.704 0,0 -1.991,-8.537 0.45,-17.598 2.18,-8.02 2.825,-20.542 -1.145,-32.233 l 16.124,-16.118 c 5.791,0.611 12.824,0.718 16.557,-1.66 0.949,-0.487 1.851,-1.121 2.673,-1.933 2.808,-2.811 3.702,-6.814 2.673,-10.395 -0.486,-1.644 -1.37,-3.209 -2.673,-4.518 -2.313,-2.314 -5.413,-3.325 -8.445,-3.039 0.28,-3.023 -0.743,-6.135 -3.045,-8.442 -1.315,-1.31 -2.874,-2.195 -4.53,-2.673 -3.568,-1.029 -7.581,-0.146 -10.388,2.673 -0.811,0.804 -1.438,1.702 -1.942,2.676 -2.363,3.73 -2.266,10.757 -1.656,16.554 L 120.536,35.337 C 118.1,32.414 115.195,29.747 111.664,27.464 104.935,23.134 97.232,19.432 80.719,19.158 70.204,18.99 55.021,20.99 43.646,32.882 L 33.091,22.317 C 33.696,16.52 33.797,9.487 31.413,5.757 30.935,4.795 30.299,3.891 29.479,3.093 26.675,0.277 22.66,-0.609 19.091,0.42 17.435,0.898 15.876,1.784 14.561,3.093 12.259,5.401 11.249,8.506 11.528,11.518 8.517,11.244 5.4,12.261 3.086,14.568 1.789,15.883 0.885,17.443 0.419,19.102 -0.61,22.673 0.282,26.67 3.086,29.496 c 0.81,0.797 1.708,1.44 2.688,1.924 3.73,2.378 10.763,2.277 16.535,1.659 l 12.708,12.708 c -1.117,2.399 -2.165,4.938 -3.023,7.77 0,0 -4.604,15.613 2.436,37.263 0,0 0.67,6.327 -3.602,10.82 -3.438,3.617 -6.777,15.126 3.878,19.546 l -12.385,12.386 c -5.785,-0.615 -12.817,-0.719 -16.541,1.669 -0.953,0.475 -1.863,1.113 -2.676,1.924 -2.804,2.812 -3.702,6.832 -2.673,10.395 0.484,1.649 1.37,3.221 2.673,4.536 2.308,2.302 5.413,3.312 8.437,3.032 -0.28,3.021 0.743,6.132 3.045,8.445 1.315,1.297 2.874,2.187 4.539,2.661 3.559,1.035 7.569,0.134 10.388,-2.661 0.804,-0.804 1.44,-1.717 1.924,-2.686 2.384,-3.732 2.271,-10.759 1.665,-16.537 l 19.206,-19.212 c 1.315,2.381 2.825,7.143 3.629,16.764 0,0 0.524,6.868 6.491,5.784 0,0 3.063,-0.182 3.605,-13.177 0,0 3.434,-3.251 3.248,4.507 0,0 -0.91,9.029 4.869,8.488 0,0 3.243,1.984 4.509,-7.941 0,0 0,-8.664 3.075,-5.419 0,0 0.898,12.636 4.512,13.901 0,0 5.23,1.626 6.138,-5.236 0,0 -0.012,-11.003 2.88,-9.018 0,0 1.084,0.725 1.255,7.392 0,0 -0.171,7.046 4.335,6.687 0,0 4.688,0 5.955,-10.82 0,0 -0.791,-12.137 5.298,-14.164 l 21.471,21.477 c -0.615,5.785 -0.707,12.824 1.674,16.551 0.47,0.962 1.121,1.875 1.931,2.673 2.813,2.819 6.826,3.702 10.388,2.673 1.65,-0.475 3.222,-1.363 4.524,-2.673 2.314,-2.308 3.325,-5.413 3.045,-8.446 3.014,0.28 6.126,-0.742 8.445,-3.044 1.304,-1.315 2.187,-2.874 2.674,-4.519 1.022,-3.58 0.134,-7.581 -2.674,-10.4 -0.829,-0.829 -1.718,-1.462 -2.692,-1.949 z M 54.972,108.692 c -2.052,-0.408 -3.925,-1.176 -5.593,-2.162 -5.389,-3.172 -8.506,-8.859 -7.358,-14.571 1.528,-7.466 9.782,-12.084 18.462,-10.327 3.623,0.743 6.677,2.509 8.967,4.811 3.218,3.239 4.85,7.562 3.979,11.916 -1.523,7.484 -9.78,12.111 -18.457,10.333 z m 31.113,9.95 c -0.637,0.451 -1.34,0.719 -2.083,0.719 -1.34,0 -2.53,-0.816 -3.321,-2.095 -0.795,1.278 -1.979,2.095 -3.319,2.095 -0.749,0 -1.464,-0.268 -2.083,-0.719 -1.333,-0.992 -2.231,-2.88 -2.231,-5.066 0,-0.621 0.085,-1.211 0.216,-1.777 0.743,-4.47 7.417,-10.096 7.417,-10.096 0,0 6.667,5.626 7.41,10.096 0.141,0.56 0.213,1.162 0.213,1.777 0.012,2.186 -0.908,4.073 -2.219,5.066 z m 28.743,-14.59 c -2.277,2.229 -5.291,3.928 -8.823,4.641 -2.916,0.603 -5.76,0.414 -8.342,-0.293 -5.097,-1.425 -9.104,-5.066 -10.12,-10.028 l -0.006,-0.104 c -1.09,-5.59 1.912,-11.18 7.143,-14.364 1.711,-1.041 3.684,-1.827 5.821,-2.26 8.677,-1.769 16.928,2.85 18.45,10.321 0.901,4.439 -0.804,8.836 -4.123,12.087 z"
   inkscape:connector-curvature="0"
   style="fill:#ffffff;fill-opacity:1" />

	</g>

</g>
      <g
         id="g821"
         style="fill:#ffffff;fill-opacity:1">
</g>
      <g
         id="g823"
         style="fill:#ffffff;fill-opacity:1">
</g>
      <g
         id="g825"
         style="fill:#ffffff;fill-opacity:1">
</g>
      <g
         id="g827"
         style="fill:#ffffff;fill-opacity:1">
</g>
      <g
         id="g829"
         style="fill:#ffffff;fill-opacity:1">
</g>
      <g
         id="g831"
         style="fill:#ffffff;fill-opacity:1">
</g>
      <g
         id="g833"
         style="fill:#ffffff;fill-opacity:1">
</g>
      <g
         id="g835"
         style="fill:#ffffff;fill-opacity:1">
</g>
      <g
         id="g837"
         style="fill:#ffffff;fill-opacity:1">
</g>
      <g
         id="g839"
         style="fill:#ffffff;fill-opacity:1">
</g>
      <g
         id="g841"
         style="fill:#ffffff;fill-opacity:1">
</g>
      <g
         id="g843"
         style="fill:#ffffff;fill-opacity:1">
</g>
      <g
         id="g845"
         style="fill:#ffffff;fill-opacity:1">
</g>
      <g
         id="g847"
         style="fill:#ffffff;fill-opacity:1">
</g>
      <g
         id="g849"
         style="fill:#ffffff;fill-opacity:1">
</g>
    </g>
  </g>
</svg>
